<svg xmlns="http://www.w3.org/2000/svg" viewBox="0 0 512 512">
  <defs>
    <linearGradient id="grad" x1="0%" y1="0%" x2="100%" y2="100%">
      <stop offset="0%" style="stop-color:#0ea5e9;stop-opacity:1" />
      <stop offset="100%" style="stop-color:#0284c7;stop-opacity:1" />
    </linearGradient>
  </defs>
  <rect width="512" height="512" rx="100" fill="url(#grad)"/>
  <path d="M256 120c-75 0-136 61-136 136s61 136 136 136 136-61 136-136-61-136-136-136zm0 240c-57.4 0-104-46.6-104-104s46.6-104 104-104 104 46.6 104 104-46.6 104-104 104z" fill="white"/>
  <path d="M256 180c-42 0-76 34-76 76s34 76 76 76 76-34 76-76-34-76-76-76zm0 120c-24.3 0-44-19.7-44-44s19.7-44 44-44 44 19.7 44 44-19.7 44-44 44z" fill="white"/>
  <circle cx="256" cy="256" r="24" fill="white"/>
  <path d="M256 100v-40M256 452v-40M100 256H60M452 256h-40" stroke="white" stroke-width="20" stroke-linecap="round"/>
</svg>



